<?xml version="1.0" encoding="utf-8"?>
<!-- Generator: Adobe Illustrator 24.1.2, SVG Export Plug-In . SVG Version: 6.00 Build 0)  -->
<svg version="1.1" id="Layer_1" xmlns="http://www.w3.org/2000/svg" xmlns:xlink="http://www.w3.org/1999/xlink" x="0px" y="0px"
	 viewBox="0 0 400 400" style="enable-background:new 0 0 400 400;" xml:space="preserve">
<style type="text/css">
	.st0{fill:#E84545;}
</style>
<g>
	<g>
		<path class="st0" d="M326.3,199.6c7.8-8,15.3-16.4,22.1-25.3c25.6-33.5,33.2-62.4,21.4-81.4c-5.8-9.2-18.7-19.9-48-19.9
			c-19.5,0.6-38.6,3.9-57.2,9.8c-14.2-50.8-37.8-83.2-64.4-83.2s-50.3,32.7-64.4,83.2c-18.5-6-37.7-9.3-57.2-9.7
			c-29.3,0-42.2,10.9-48,19.9c-11.9,18.9-4.3,47.8,21.4,81.3c6.9,8.9,14.3,17.3,22.1,25.3c-7.8,8-15.3,16.4-22.1,25.3
			c-25.6,33.5-33.2,62.4-21.4,81.4c5.8,9.2,18.7,19.9,48,19.9c19.5-0.5,38.6-3.8,57.2-9.7c14.2,50.8,37.8,83.2,64.4,83.2
			s50.3-32.7,64.4-83.2c18.5,6,37.7,9.3,57.2,9.7c29.3,0,42.2-10.9,48-19.9c11.9-19,4.3-47.9-21.4-81.4
			C341.5,216,334.2,207.6,326.3,199.6z M86.5,317.2c-12.4,0-38.1,3.7-48.8-13.5c-10.5-16.7-0.4-45.7,21-73.3
			c6.5-8.4,14.4-16.9,21.8-24.5c12.1,11.3,29.3,26.3,42.6,36.2c1.6,20,5.9,46.8,10.4,66.4C116.1,314.2,104.7,316.6,86.5,317.2z
			 M122.5,230c-12.2-8-23.7-17.7-35.3-30c8.1-7.6,18-19.1,35.3-31.3c0,7.6-1.1,23.3-1.1,30.9S122.2,222.4,122.5,230z M123.1,157
			l-0.1,0.2c-13.3,9.9-30.5,24.3-42.6,35.6c-7.4-7.6-14.2-14.9-20.7-23.3c-21.3-27.7-30.7-53.8-23-68.3C45.3,85.7,65.6,83,78.2,83
			c18.1,0.6,38,3.3,55.3,9C129,111.7,124.7,136.9,123.1,157z M267.3,151.3c-6.1-4.3-18.6-13.3-25-17.3c-8.5-5.3-24.8-14.7-33.3-19.5
			c15.8-8.2,29.8-14,49.3-20C261.5,108.8,265.3,126,267.3,151.3z M200,8.8c22,0,43,31.4,55.3,77c-17.1,6-38.9,14.9-55.2,23
			c-16.2-8.3-38.3-17-55.5-23.2C157,40.3,176.7,8.8,200,8.8z M142.5,94.5c14.5,4.1,30.4,10.2,47.8,20.5c-8.5,4.7-21,11.5-29.5,17
			c-6.4,4.1-21.2,15.1-27.4,19.3C134.8,127.2,138,111.7,142.5,94.5z M132.8,247.3c6.1,4.3,22.6,15.9,29,20c8.5,5.4,20.5,13.2,29,18
			c-12.7,6-35.4,15.7-47.5,20C138.3,289,134.4,261.9,132.8,247.3z M200.2,388.5c-18.1,0-41.7-29.9-54-75.5c17.1-6,37.7-14.6,54-22.7
			c16.2,8.3,37,16.6,54.2,22.7C242,358.4,218.3,388.5,200.2,388.5z M256.8,303.3c-17-4.2-34.6-12.1-47.3-18.2
			c8.5-4.7,24.1-13.5,32.6-19c6.4-4.1,19.7-13.8,25.9-18C266.3,269.2,262.8,285.5,256.8,303.3z M268.8,238.6
			c-9.2,6.6-18.6,12.4-28.5,18.8c-11.2,7.1-30,17.8-41.3,23.6c-11.3-6-23.9-14.4-35.1-21.4c-9.9-6.2-23.2-15.9-32.3-22.6
			c-0.8-11.2-1.8-25.5-1.8-37.4c0-11.9,1.1-25.1,1.9-36.2c9.2-6.6,23.3-18.5,33.3-24.9c11.2-7.1,22.5-13.4,33.8-19.3
			c11.3,6,26.5,13.9,37.8,20.9c9.9,6.2,23.3,16.4,32.4,23.1c0.8,11.2,1.9,24.2,1.9,36.1C270.8,211.2,269.4,227.5,268.8,238.6
			l-5.9-4.5L268.8,238.6z M321.8,83c12.4,0,33.8,1.7,40.8,17.4c7.3,14,3.5,36-21.1,66.8c-6.4,8.4-14.5,18-21.8,25.7l-1.2-1
			c-12.1-11.3-27.8-25.1-41.1-35c-1.6-20-5.6-44.5-10-64.2C284.6,87.1,303.7,83.6,321.8,83z M277.8,169.7
			c16.8,12.3,26.3,19.8,35.3,30.3c-8.1,7.6-26,23.6-35.3,31.2c0-7.6,0.8-23.2,0.8-30.8C278.7,192.9,278.1,177.2,277.8,169.7z
			 M362.2,301c-6.7,10.7-25.6,15-38.2,15c-18.2-0.6-39.4-3.6-56.7-9.3c4.4-19.7,8.2-44.5,9.8-64.5c13.3-9.9,29.9-24.2,42-35.5
			c9,8.7,19,21,25.5,29.3l0,0C366,263.6,370.4,288,362.2,301z"/>
	</g>
</g>
<g>
	<g>
		<path class="st0" d="M200.2,228.6c16,0,29-13,29-29s-13-29-29-29s-29,13-29,29S184.1,228.6,200.2,228.6z M200.4,179.3L200.4,179.3
			c11.8,0,20.3,8.1,20.3,20.1c0,11.2-9.3,20.9-21.4,20.9c-10.8,0-19.1-10.1-19.1-21.6C180.1,187.3,187.9,179.3,200.4,179.3z"/>
	</g>
</g>
</svg>
