<?xml version="1.0" encoding="utf-8"?>
<!-- Generator: Adobe Illustrator 24.1.2, SVG Export Plug-In . SVG Version: 6.00 Build 0)  -->
<svg version="1.1" id="Layer_1" xmlns="http://www.w3.org/2000/svg" xmlns:xlink="http://www.w3.org/1999/xlink" x="0px" y="0px"
	 viewBox="0 0 400 400" style="enable-background:new 0 0 400 400;" xml:space="preserve">
<style type="text/css">
	.st0{fill:#E84545;}
</style>
<g>
	<path class="st0" d="M392.4,39.6H7.9c-4.3,0-7.8,3.5-7.8,7.8v252c0,4.3,3.5,7.8,7.8,7.8h155.4v18.4h-40.7c-4.3,0-7.8,3.5-7.8,7.8
		v18.7c0,4.3,3.5,7.8,7.8,7.8h155c4.3,0,7.8-3.5,7.8-7.8v-18.7c0-4.3-3.5-7.8-7.8-7.8H237v-18.4h155.4c4.3,0,7.8-3.5,7.8-7.8v-252
		C400.2,43.1,396.7,39.6,392.4,39.6z M272.7,349.7H127V336h44.3h58h43.4v8.1V349.7z M225.6,325.4h-52.4v-18.4h52.4V325.4z
		 M389.9,297.6h-160h-58H8.5V48.9h381.4V297.6z"/>
	<path class="st0" d="M31.1,284.5h338.1c4.3,0,7.8-3.5,7.8-7.8V69.9c0-4.3-3.5-7.8-7.8-7.8H31.1c-4.3,0-7.8,3.5-7.8,7.8v206.8
		C23.4,281,26.8,284.5,31.1,284.5z M32.1,72.2h335.2v203.7H32.1V72.2z"/>
</g>
</svg>
