<?xml version="1.0" encoding="utf-8"?>
<!-- Generator: Adobe Illustrator 24.1.2, SVG Export Plug-In . SVG Version: 6.00 Build 0)  -->
<svg version="1.1" id="Layer_1" xmlns="http://www.w3.org/2000/svg" xmlns:xlink="http://www.w3.org/1999/xlink" x="0px" y="0px"
	 viewBox="0 0 400 400" style="enable-background:new 0 0 400 400;" xml:space="preserve">
<style type="text/css">
	.st0{fill:#E84545;}
</style>
<g>
	<path class="st0" d="M110.3,247l43.6,71.8c0.8,1.6,3.1,3.1,4.7,3.1h82.4c2.4,0,3.9-0.8,4.7-3.1L293,247
		c26.7-39.5,43.6-68.6,43.6-110.9c0-75.3-61.2-136.5-136.5-136.5S63.7,60.8,63.7,136.1C63.7,177.6,86.3,210.9,110.3,247z
		 M200.2,10.6c69,0,125.5,56.5,125.5,125.5c0,39.2-16.5,66.7-40,101.6c-0.8,0.8,6,3.1,0,0L237.8,311h-76.1l-42.4-68.3
		c0-0.8,0.7,3,0,0c-29.5-44.9-45.4-67.4-45.4-106.6C74.7,66.3,131.1,10.6,200.2,10.6z"/>
	<path class="st0" d="M164.1,352.5c-3.1,0-5.5,2.4-5.5,5.5c0,22.7,18.8,41.6,41.6,41.6s41.6-18.8,41.6-41.6c0-3.1-2.4-5.5-5.5-5.5
		H164.1z M200.2,389.4c-14.9,0-28.2-11-30.6-25.9h61.2C228.4,378.4,215.1,389.4,200.2,389.4z"/>
	<path class="st0" d="M248.8,337.6c0-3.1-2.4-5.5-5.5-5.5H157c-3.1,0-5.5,2.4-5.5,5.5s2.4,5.5,5.5,5.5h86.3
		C246.4,343.1,248.8,340.8,248.8,337.6z"/>
</g>
</svg>
