<?xml version="1.0" encoding="utf-8"?>
<!-- Generator: Adobe Illustrator 24.1.2, SVG Export Plug-In . SVG Version: 6.00 Build 0)  -->
<svg version="1.1" id="Layer_1" xmlns="http://www.w3.org/2000/svg" xmlns:xlink="http://www.w3.org/1999/xlink" x="0px" y="0px"
	 viewBox="0 0 400 400" style="enable-background:new 0 0 400 400;" xml:space="preserve">
<style type="text/css">
	.st0{fill:none;}
	.st1{fill:#E84545;}
</style>
<g>
	<path class="st0" d="M0.2,256.5c0-69.4,0-138.7,0-208.1c133.2,0,266.5,0,399.9,0c0,69.2,0,138.5,0,207.7c-0.1-0.7-0.3-1.4-0.4-2.2
		c-1.1-14.6-4.7-28.4-12.4-40.9c-14.2-23.4-34.9-37.2-62.3-40.5c-1.3-0.1-1.7-0.6-1.8-1.9c-1-14.8-4.3-29.2-9.8-42.9
		c-10.9-27-28.2-48.7-53.9-63.1c-29.1-16.2-60.2-19-92.5-13.3c-3.1,0.6-4.7,2.9-4.2,5.7c0.5,2.7,2.9,4.2,6.1,3.6
		c14.9-2.8,29.9-3.3,45-1.3c16.6,2.2,32.2,7.1,46.3,16.3c32.9,21.5,48.6,53.2,53,91.2c1,9.2,0.7,18.5,0.9,27.7
		c0.1,4.2,1.8,6.5,4.9,6.4c3.1-0.1,4.7-2.2,4.7-6.4c0-4.2,0-8.4,0-12.8c0.8,0,1.4,0,2,0.1c23.8,3.7,42,15.8,53.7,36.7
		c12.7,22.6,14.3,46.7,6.7,71.2c-9.7,31.2-37.8,54-73.5,54c-75.3-0.2-150.7,0-226-0.1c-5.6,0-11.2-0.5-16.6-1.7
		c-24.5-5.4-42.7-19.1-52.9-42.1c-10.6-24.2-10.4-49.2,0-73.4C28.8,199,50.1,184.3,80,182.2c6.6-0.4,13.3-0.2,20-0.3
		c3,0,5-2.2,4.9-4.8c-0.1-2.6-2.2-4.5-5-4.6c-2.8,0-5.7,0-8.6,0c-1.8,0-3.6,0-5.5,0c0-6.5-0.1-12.7,0-18.9c0.1-4.7,0.4-9.4,1.2-14
		c2.3-13,7.9-24.2,18.6-32.2c14.9-11.2,31.8-13.8,49.6-10.1c26.7,5.6,44.7,28.2,44.7,55.5c0.1,40.8,0,81.6,0,122.4
		c0,0.5-0.1,0.9-0.1,1.6c-0.7-0.6-1.1-1-1.6-1.4c-11.6-10.8-23.2-21.5-34.8-32.3c-1.1-1-2.2-2.2-3.5-3.1c-1.9-1.5-4.7-1.1-6.3,0.7
		c-1.6,1.8-1.7,4.3-0.1,6.2c0.6,0.7,1.2,1.3,1.9,1.9c11.1,10.3,22.2,20.5,33.3,30.8c3.1,2.8,6.2,5.7,9.3,8.6
		c4.8,4.5,8.8,4.5,13.7,0.1c0.5-0.4,1-0.9,1.5-1.4c9.4-8.7,18.8-17.5,28.3-26.2c4.7-4.4,9.4-8.7,14-13c1.5-1.4,2.2-3.1,1.6-5.1
		c-0.6-1.9-2-3.1-4-3.4c-1.9-0.3-3.4,0.8-4.7,2.1c-12.1,11.2-24.2,22.5-36.3,33.7c-0.7,0.6-1.3,1.2-2.4,2.2c0-1.3,0-2.1,0-2.9
		c0-39.7,0-79.4,0-119.1c0-4.3-0.1-8.7-0.9-13c-4-22.8-16.4-39.6-37.3-49.5c-16.5-7.8-33.7-8-51-3c-15.2,4.3-27,13.2-34.9,27
		c-6,10.3-8.6,21.6-9,33.5c-0.1,6.8-0.1,13.8-0.1,20.6c0,0.7,0,1.4,0,2.2c-1,0.1-1.8,0.3-2.5,0.4c-12.6,1.5-24.4,5.5-35,12.5
		c-21.1,14.1-32.5,34.4-37.2,58.8C1.1,248.6,0.7,252.6,0.2,256.5z"/>
	<path class="st1" d="M0.2,256.5c0.5-3.9,0.9-8,1.7-11.9c4.7-24.4,16.1-44.7,37.2-58.8c10.6-7.1,22.3-11,35-12.5
		c0.7-0.1,1.5-0.2,2.5-0.4c0-0.8,0-1.5,0-2.2c0-6.8-0.1-13.8,0.1-20.6c0.3-11.9,3-23.2,9-33.5c8-13.7,19.7-22.6,34.9-27
		c17.3-4.9,34.5-4.8,51,3c21,9.9,33.3,26.7,37.3,49.5c0.8,4.2,0.9,8.6,0.9,13c0.1,39.7,0,79.4,0,119.1c0,0.8,0,1.6,0,2.9
		c1-1,1.8-1.6,2.4-2.2c12.1-11.2,24.2-22.5,36.3-33.7c1.3-1.2,2.8-2.3,4.7-2.1c2,0.3,3.4,1.4,4,3.4c0.7,2,0,3.7-1.6,5.1
		c-4.7,4.4-9.3,8.7-14,13c-9.4,8.7-18.8,17.5-28.3,26.2c-0.5,0.4-1,0.9-1.5,1.4c-4.9,4.3-8.8,4.3-13.7-0.1c-3.1-2.8-6.2-5.7-9.3-8.6
		c-11.1-10.3-22.2-20.5-33.2-30.8c-0.7-0.6-1.3-1.2-1.9-1.9c-1.5-1.9-1.4-4.4,0.1-6.2c1.6-1.8,4.3-2.1,6.3-0.7
		c1.3,0.9,2.4,2.1,3.5,3.1c11.6,10.8,23.2,21.5,34.8,32.3c0.4,0.4,0.9,0.8,1.6,1.4c0.1-0.7,0.1-1.1,0.1-1.6c0-40.8,0.1-81.6,0-122.4
		c-0.1-27.4-18.1-50-44.7-55.5c-17.7-3.7-34.7-1.1-49.6,10.1c-10.7,8-16.4,19.3-18.6,32.2c-0.8,4.6-1.1,9.3-1.2,14
		c-0.3,6.1-0.1,12.3-0.1,18.8c1.9,0,3.7,0,5.5,0c2.8,0,5.7,0,8.6,0c2.8,0,4.9,2,5,4.6c0.1,2.7-2,4.8-4.9,4.8
		c-6.6,0.1-13.3-0.1-20,0.3c-29.7,2-51.1,16.7-62.8,44.2C6.8,250.8,6.6,275.7,17.3,300c10.2,23,28.3,36.8,52.8,42.1
		c5.4,1.2,11.1,1.6,16.6,1.7c75.3,0.1,150.7-0.1,226,0.1c35.7,0.1,63.8-22.8,73.5-54c7.6-24.5,6-48.6-6.7-71.2
		c-11.7-20.9-29.9-33.1-53.7-36.7c-0.6-0.1-1.2-0.1-2-0.1c0,4.4,0,8.6,0,12.8c0,4.1-1.6,6.3-4.7,6.4c-3.1,0.1-4.8-2.2-4.9-6.4
		c-0.2-9.2,0.1-18.6-0.9-27.7c-4.4-38.1-20.1-69.8-53-91.2c-14-9.2-29.7-14.1-46.3-16.3c-15.1-1.9-30.1-1.6-45,1.3
		c-3.2,0.6-5.6-0.9-6.1-3.6c-0.5-2.8,1-5.2,4.2-5.7c32.3-5.7,63.4-3,92.5,13.2c25.7,14.3,43,36,53.9,63.1
		c5.6,13.8,8.7,28.1,9.8,42.9c0.1,1.3,0.4,1.7,1.8,1.9c27.3,3.4,48,17.1,62.2,40.5c7.6,12.5,11.3,26.4,12.4,40.9
		c0,0.7,0.2,1.5,0.4,2.2c0,4.4,0,8.7,0,13c-0.1,0.4-0.2,0.9-0.3,1.3c-1,6-1.5,12.1-3.1,17.8c-10.1,38.2-42.9,65.1-83,65.1
		c-75.8-0.1-151.6,0-227.4,0c-13.4,0-26.3-2.4-38.2-8.5c-25.5-13.1-39.7-34.7-45.7-62.2c-1-4.6-1.4-9.3-2.1-14
		C0.2,264.7,0.2,260.6,0.2,256.5z"/>
	<path class="st0" d="M0.2,268.7c0.7,4.7,1,9.4,2.1,14c6.1,27.4,20.3,49,45.7,62.1c12,6.1,24.9,8.5,38.2,8.5
		c75.8,0,151.6-0.1,227.4,0c40.1,0.1,72.9-26.9,83-65.1c1.6-5.8,2-11.9,3.1-17.8c0.1-0.4,0.2-0.9,0.3-1.3c0,28.1,0,56.3,0,84.5
		c-133.3,0-266.6,0-399.9,0C0.2,325.3,0.2,297,0.2,268.7z"/>
</g>
</svg>
