<?xml version="1.0" encoding="utf-8"?>
<!-- Generator: Adobe Illustrator 24.1.2, SVG Export Plug-In . SVG Version: 6.00 Build 0)  -->
<svg version="1.1" id="Layer_1" xmlns="http://www.w3.org/2000/svg" xmlns:xlink="http://www.w3.org/1999/xlink" x="0px" y="0px"
	 viewBox="0 0 400 400" style="enable-background:new 0 0 400 400;" xml:space="preserve">
<style type="text/css">
	.st0{fill:#E84545;}
</style>
<path class="st0" d="M376.2,79.6h-88v-24c0-22-18-40-40-40h-96c-22,0-40,18-40,40v24h-88c-13.2,0-24,10.8-24,24v256
	c0,13.2,10.8,24,24,24h352c13.2,0,24-10.8,24-24v-256C400.2,90.4,389.4,79.6,376.2,79.6z M128.2,55.6c0-13.2,10.8-24,24-24h96
	c13.2,0,24,10.8,24,24v24h-144L128.2,55.6L128.2,55.6z M24.2,95.6h352c4.4,0,8,3.6,8,8v88c-56.2,31.6-119.6,48-184,48
	s-127.8-16.6-184-48v-88C16.2,99.2,19.8,95.6,24.2,95.6z M376.2,367.6h-352c-4.4,0-8-3.6-8-8V209.8c56.6,30,119.8,45.8,184,45.8
	s127.4-15.8,184-45.8v149.8C384.2,364,380.6,367.6,376.2,367.6z"/>
<path class="st0" d="M164,288.7c0-4.4,3.6-8,8-8h48c4.4,0,8,3.6,8,8s-3.6,8-8,8h-48C167.6,296.7,164,293.1,164,288.7z"/>
</svg>
