<?xml version="1.0" encoding="utf-8"?>
<!-- Generator: Adobe Illustrator 24.1.2, SVG Export Plug-In . SVG Version: 6.00 Build 0)  -->
<svg version="1.1" id="Capa_1" xmlns="http://www.w3.org/2000/svg" xmlns:xlink="http://www.w3.org/1999/xlink" x="0px" y="0px"
	 viewBox="0 0 470 470" style="enable-background:new 0 0 470 470;" xml:space="preserve">
<style type="text/css">
	.st0{fill:#E84545;}
</style>
<g>
	<path class="st0" d="M85.3,62.8c-6,0-11.7,2.3-15.9,6.6c-8.8,8.8-8.8,23,0,31.8c4.3,4.2,9.9,6.6,15.9,6.6c6,0,11.7-2.3,15.9-6.6
		c8.8-8.8,8.8-23,0-31.8C96.9,65.1,91.3,62.8,85.3,62.8z M90.6,90.6c-1.4,1.4-3.3,2.2-5.3,2.2c-2,0-3.9-0.8-5.3-2.2
		c-2.9-2.9-2.9-7.7,0-10.6c1.4-1.4,3.3-2.2,5.3-2.2c2,0,3.9,0.8,5.3,2.2C93.5,82.9,93.5,87.7,90.6,90.6z"/>
	<path class="st0" d="M400.6,400.6c8.8-8.8,8.8-23,0-31.8c-4.3-4.2-9.9-6.6-15.9-6.6c-6,0-11.7,2.3-15.9,6.6c-8.8,8.8-8.8,23,0,31.8
		c4.3,4.2,9.9,6.6,15.9,6.6C390.7,407.2,396.4,404.9,400.6,400.6z M379.4,379.4c1.4-1.4,3.3-2.2,5.3-2.2c2,0,3.9,0.8,5.3,2.2
		c2.9,2.9,2.9,7.7,0,10.6c-1.4,1.4-3.3,2.2-5.3,2.2c-2,0-3.9-0.8-5.3-2.2C376.5,387.1,376.5,382.4,379.4,379.4z"/>
	<path class="st0" d="M127.2,229.7c1.5,1.5,3.4,2.2,5.3,2.2c1.9,0,3.8-0.7,5.3-2.2c2.9-2.9,2.9-7.7,0-10.6L18.1,99.4l81.3-81.3
		l53,53l-23,23c-2.9,2.9-2.9,7.7,0,10.6c1.5,1.5,3.4,2.2,5.3,2.2s3.8-0.7,5.3-2.2l23-23l20.1,20.1l-23,23c-2.9,2.9-2.9,7.7,0,10.6
		c1.5,1.5,3.4,2.2,5.3,2.2c1.9,0,3.8-0.7,5.3-2.2l23-23l20.1,20.1l-23,23c-2.9,2.9-2.9,7.7,0,10.6c1.5,1.5,3.4,2.2,5.3,2.2
		s3.8-0.7,5.3-2.2l28.3-28.3c2.9-2.9,2.9-7.7,0-10.6l-125-125c-2.9-2.9-7.7-2.9-10.6,0L2.2,94.1c-2.9,2.9-2.9,7.7,0,10.6
		L127.2,229.7z"/>
	<path class="st0" d="M342.8,240.3c-2.9-2.9-7.7-2.9-10.6,0l-28.3,28.3c-2.9,2.9-2.9,7.7,0,10.6c1.5,1.5,3.4,2.2,5.3,2.2
		c1.9,0,3.8-0.7,5.3-2.2l23-23l20.1,20.1l-23,23c-2.9,2.9-2.9,7.7,0,10.6c1.5,1.5,3.4,2.2,5.3,2.2c1.9,0,3.8-0.7,5.3-2.2l23-23
		l20.1,20.1l-23,23c-2.9,2.9-2.9,7.7,0,10.6c1.5,1.5,3.4,2.2,5.3,2.2s3.8-0.7,5.3-2.2l23-23l53,53l-81.3,81.3L250.9,332.2
		c-2.9-2.9-7.7-2.9-10.6,0c-2.9,2.9-2.9,7.7,0,10.6l125,125c1.5,1.5,3.4,2.2,5.3,2.2s3.8-0.7,5.3-2.2l91.9-91.9
		c2.9-2.9,2.9-7.7,0-10.6L342.8,240.3z"/>
	<path class="st0" d="M397.3,154c0,0,61.7-61.7,61.7-61.7c14.6-14.6,14.6-38.4,0-53L430.8,11c-14.6-14.6-38.4-14.6-53,0l-14.1,14.1
		c-2.9,2.9-2.9,7.7,0,10.6c2.9,2.9,7.7,2.9,10.6,0l14.1-14.1c8.8-8.8,23-8.8,31.8,0l28.3,28.3c8.8,8.8,8.8,23,0,31.8l-30.1,30.1
		L353,46.3c-2.9-2.9-7.7-2.9-10.6,0L316,72.7C316,72.7,51.7,337,51.7,337c0,0,0,0,0,0c-0.1,0.1-0.1,0.1-0.2,0.2
		c-0.6,0.6-1.1,1.4-1.4,2.2l-28.9,70.1c0,0,0,0,0,0.1l-20.6,50c-1.2,2.8-0.5,6,1.6,8.2c1.4,1.4,3.4,2.2,5.3,2.2c1,0,1.9-0.2,2.9-0.6
		l50-20.6c0,0,0,0,0.1,0l70.1-28.9c0.8-0.3,1.6-0.8,2.2-1.4c0.1-0.1,0.1-0.1,0.2-0.2c0,0,0,0,0.1,0L397.3,154z M130.3,399.8
		c-2-3.4-4.5-6.7-7.4-9.5c-5.9-5.9-13-10-20.6-12l196-196c2.9-2.9,2.9-7.7,0-10.6c-2.9-2.9-7.7-2.9-10.6,0l-196,196
		c-2.1-7.6-6.2-14.7-12-20.6c-2.9-2.9-6.1-5.3-9.5-7.4L321.3,88.6l24.7,24.7L316,143.4c-2.9,2.9-2.9,7.7,0,10.6
		c1.5,1.5,3.4,2.2,5.3,2.2s3.8-0.7,5.3-2.2l30.1-30.1l24.7,24.7L130.3,399.8z M59.4,433.1L37,410.7l24.2-58.8
		c2.9,1.5,5.6,3.4,7.9,5.8c7.1,7.1,10.4,16.7,8.8,25.7c-0.4,2.4,0.4,4.9,2.1,6.6c1.7,1.7,4.2,2.5,6.6,2.1c9-1.6,18.7,1.7,25.7,8.8
		c2.4,2.4,4.3,5.1,5.8,7.9L59.4,433.1z M347.7,62.2l60.1,60.1L392,138.1L331.9,78L347.7,62.2z M30.8,425.7l13.6,13.6l-23,9.5
		L30.8,425.7z"/>
</g>
</svg>
